<svg id="Layer_1" data-name="Layer 1" xmlns="http://www.w3.org/2000/svg" viewBox="0 0 471.12 138.19"><defs><style>.cls-1{fill:none;}</style></defs><title>honeyfund</title><path class="cls-1" d="M172.94,71.11a27,27,0,0,0,2.72-4.26,9.3,9.3,0,0,0,1.11-4.21,3.82,3.82,0,0,0-.35-1.58,1.37,1.37,0,0,0-1.36-.76c-1,0-2,.73-3,2.18a32.93,32.93,0,0,0-2.83,5.08A52.84,52.84,0,0,0,167,73.35a34.33,34.33,0,0,0-1.11,4.2,27.7,27.7,0,0,0,3.53-2.68A26.94,26.94,0,0,0,172.94,71.11Z"/><path class="cls-1" d="M204.12,110.8a40.88,40.88,0,0,0-5.4,8,18.82,18.82,0,0,0-2.17,8.68,16.37,16.37,0,0,0,.15,2.07,6.94,6.94,0,0,0,.61,2.12,4.62,4.62,0,0,0,1.21,1.61,2.85,2.85,0,0,0,2,.66,5.1,5.1,0,0,0,2.37-.61,11.46,11.46,0,0,0,2.22-1.51,17.45,17.45,0,0,0,2-2c.61-.71,1.14-1.36,1.61-2a28.16,28.16,0,0,0,3.59-6.4,71.58,71.58,0,0,0,2.72-7.92q1.15-4.14,2-8.23A71.21,71.21,0,0,0,218,97.94c-2.16,1.74-4.48,3.7-7,5.85A65.73,65.73,0,0,0,204.12,110.8Z"/><path class="cls-1" d="M99.38,68.12a7.14,7.14,0,0,0-1.61-2.32,3.67,3.67,0,0,0-2.63-1,6.69,6.69,0,0,0-5,2.32,20.2,20.2,0,0,0-3.63,5.55,33.39,33.39,0,0,0-2.22,6.66,27.3,27.3,0,0,0-.76,5.75,20.55,20.55,0,0,0,.2,2.68,9.74,9.74,0,0,0,.76,2.67,5.9,5.9,0,0,0,1.56,2.07,3.8,3.8,0,0,0,2.53.86,5.69,5.69,0,0,0,2.47-.56,11.43,11.43,0,0,0,2.17-1.36,15.34,15.34,0,0,0,3.28-3.58,22.33,22.33,0,0,0,2.22-4.39A26,26,0,0,0,100,78.72a29.67,29.67,0,0,0,.4-4.79,22.15,22.15,0,0,0-.2-2.83A10.47,10.47,0,0,0,99.38,68.12Z"/><path class="cls-1" d="M11.25,84.27a32.39,32.39,0,0,0-4.09,6.2,13.86,13.86,0,0,0-1.61,6.15A1.91,1.91,0,0,0,6.2,98a2.13,2.13,0,0,0,1.47.6,3.56,3.56,0,0,0,1.86-.5,8.32,8.32,0,0,0,1.57-1.21,20.93,20.93,0,0,0,2.82-4.09q1.72-3,3.43-6.41t3-6.65A23.28,23.28,0,0,0,21.79,75a30.26,30.26,0,0,0-5.24,3.78A48.08,48.08,0,0,0,11.25,84.27Z"/><path class="cls-1" d="M251.74,84.62a21.51,21.51,0,0,0-3.18-5.35,15.17,15.17,0,0,0-4.9-3.93c-.73,4.71-1.38,9.42-1.91,14.12a124.78,124.78,0,0,0-.81,14.23c0,.74,0,1.93.1,3.58a40,40,0,0,0,.56,5.09,19.83,19.83,0,0,0,1.31,4.59c.57,1.32,1.32,2,2.27,2a4.22,4.22,0,0,0,3.23-1.61,15.43,15.43,0,0,0,2.42-3.84,32.08,32.08,0,0,0,1.67-4.54,33.1,33.1,0,0,0,.85-3.63,34.93,34.93,0,0,0,.56-4c.1-1.32.15-2.64.15-4V97a37,37,0,0,0-.56-6.26A29.2,29.2,0,0,0,251.74,84.62Z"/><path class="cls-1" d="M407.07,47.39q2-6,3.28-11.81a48.69,48.69,0,0,0,1.31-10.49v-.61a5.65,5.65,0,0,0-.1-1,2.71,2.71,0,0,0-.31-.86.63.63,0,0,0-.6-.35,1.25,1.25,0,0,0-.91.4l-.7.7a17.11,17.11,0,0,0-2.63,4.8,70.48,70.48,0,0,0-2.47,7.51c-.77,2.83-1.5,5.82-2.17,9s-1.26,6.22-1.77,9.18-.89,5.66-1.16,8.12-.4,4.42-.4,5.9v1q2-4.25,4.34-9.89T407.07,47.39Z"/><path class="cls-1" d="M390.77,67.77a11.76,11.76,0,0,0-6.66,2.17,25.47,25.47,0,0,0-5.75,5.34,28.08,28.08,0,0,0-4,6.92,18.39,18.39,0,0,0-1.52,6.86,11.55,11.55,0,0,0,.1,1.26.8.8,0,0,0,.91.75,8.24,8.24,0,0,0,4.24-1.81A48.56,48.56,0,0,0,383.31,85c1.75-1.61,3.34-3.23,4.79-4.84A22.93,22.93,0,0,0,391,76.45c-.13-1.48-.2-2.93-.2-4.34Z"/><path d="M79.76,64.19a2.57,2.57,0,0,0,.76-1.87,2.37,2.37,0,0,0-1-2.27,9.34,9.34,0,0,0-2.43-.86,13.22,13.22,0,0,0-3-.45c-1,0-2-.05-3-.05H66.09c-1.62,0-3.27.07-5,.2q1.41-4.14,3.23-8.58t3.94-8.77q2.11-4.35,4.48-8.48t4.9-7.77A8.83,8.83,0,0,1,79,23.68c.54-.54,1.06-1.11,1.57-1.72a11.36,11.36,0,0,0,1.26-1.87,4.2,4.2,0,0,0,.5-2c0-.74-.44-1.11-1.31-1.11a3.56,3.56,0,0,0-2.17.91,15,15,0,0,0-2.22,2.16c-.71.85-1.38,1.69-2,2.53s-1.13,1.53-1.46,2.06a153,153,0,0,0-10.34,17A168.24,168.24,0,0,0,54.68,59.7a69,69,0,0,0-11.5,2.17q-5.64,1.56-11.3,3.38,1.71-6.66,2.93-13.52A79.26,79.26,0,0,0,36,37.9a36.66,36.66,0,0,0-.45-5.55A18.13,18.13,0,0,0,33.9,27a11.48,11.48,0,0,0-3.33-4,8.78,8.78,0,0,0-5.45-1.62,15.83,15.83,0,0,0-2.37.31,24,24,0,0,0-3.33.86,18.68,18.68,0,0,0-3,1.26c-.88.47-1.32,1-1.32,1.61a1.57,1.57,0,0,0,.76,1.26,2.42,2.42,0,0,0,1.36.56,4,4,0,0,0,1.67-.35,3.81,3.81,0,0,1,1.66-.36A4.13,4.13,0,0,1,23.86,28a10.09,10.09,0,0,1,1.92,3.49,22.21,22.21,0,0,1,.91,4.18,34.84,34.84,0,0,1,.25,3.69c0,.47-.09,1.51-.25,3.12s-.39,3.5-.66,5.65-.59,4.41-1,6.77-.7,4.54-1,6.55-.58,3.68-.86,5a7.38,7.38,0,0,1-.6,2.17A35.23,35.23,0,0,1,19,71a35.37,35.37,0,0,0-3.64,2.42,67.34,67.34,0,0,0-5.24,4.49,46.16,46.16,0,0,0-5,5.55,29.69,29.69,0,0,0-3.68,6.25A16.87,16.87,0,0,0,0,96.42a10,10,0,0,0,2.17,6.71q2.16,2.58,6.5,2.58a9.83,9.83,0,0,0,5.71-1.87,20.5,20.5,0,0,0,4.84-4.9,44.57,44.57,0,0,0,4-6.8c1.22-2.53,2.29-5.06,3.24-7.62s1.76-5,2.47-7.32S30.2,73,30.67,71.4a107.35,107.35,0,0,1,11-4.19,103.59,103.59,0,0,1,11.35-2.87,69.93,69.93,0,0,0-2.72,10,53.52,53.52,0,0,0-1,10.34,38.4,38.4,0,0,0,.35,5,12.22,12.22,0,0,0,1.57,4.75,6.91,6.91,0,0,0,1.51,1.81,3.12,3.12,0,0,0,2.12.91,2.48,2.48,0,0,0,1.46-.56,1.64,1.64,0,0,0,.76-1.36,2.76,2.76,0,0,0-.36-1c-.23-.47-.5-1-.8-1.76a17.72,17.72,0,0,1-.81-2.37,10.65,10.65,0,0,1-.35-2.83,52.59,52.59,0,0,1,.35-5.9q.34-3.18,1-6.36t1.56-6.25a33.58,33.58,0,0,1,2.12-5.5c1.28-.14,2.54-.25,3.78-.35s2.51-.16,3.79-.16a13.75,13.75,0,0,1,5.34,1.06,13.16,13.16,0,0,0,5.15,1.06A2.56,2.56,0,0,0,79.76,64.19ZM20.33,79.78q-1.26,3.23-3,6.65t-3.43,6.41a20.93,20.93,0,0,1-2.82,4.09,8.32,8.32,0,0,1-1.57,1.21,3.56,3.56,0,0,1-1.86.5A2.13,2.13,0,0,1,6.2,98a1.91,1.91,0,0,1-.65-1.42,13.86,13.86,0,0,1,1.61-6.15,32.39,32.39,0,0,1,4.09-6.2,48.08,48.08,0,0,1,5.3-5.46A30.26,30.26,0,0,1,21.79,75,23.28,23.28,0,0,1,20.33,79.78Z"/><path d="M102.66,62.82a9.51,9.51,0,0,0-2.87-3.33,7.77,7.77,0,0,0-4.65-1.31,12.54,12.54,0,0,0-8,2.78,25.28,25.28,0,0,0-5.9,6.81,34.26,34.26,0,0,0-3.68,8.68,32.56,32.56,0,0,0-1.26,8.47,22.44,22.44,0,0,0,.5,4.64,14.73,14.73,0,0,0,1.61,4.34,9.74,9.74,0,0,0,3,3.18A8,8,0,0,0,86,98.34a11.79,11.79,0,0,0,4.14-.75,19,19,0,0,0,8.68-6.52,28.16,28.16,0,0,0,3.33-5.85,30.76,30.76,0,0,0,1.91-6.5,37.55,37.55,0,0,0,.61-6.71,25.84,25.84,0,0,0-.45-4.74A15.91,15.91,0,0,0,102.66,62.82ZM100,78.72a26,26,0,0,1-1.26,4.79,22.33,22.33,0,0,1-2.22,4.39,15.34,15.34,0,0,1-3.28,3.58,11.43,11.43,0,0,1-2.17,1.36,5.69,5.69,0,0,1-2.47.56,3.8,3.8,0,0,1-2.53-.86,5.9,5.9,0,0,1-1.56-2.07,9.74,9.74,0,0,1-.76-2.67,20.55,20.55,0,0,1-.2-2.68,27.3,27.3,0,0,1,.76-5.75,33.39,33.39,0,0,1,2.22-6.66,20.2,20.2,0,0,1,3.63-5.55,6.69,6.69,0,0,1,5-2.32,3.67,3.67,0,0,1,2.63,1,7.14,7.14,0,0,1,1.61,2.32,10.47,10.47,0,0,1,.81,3,22.15,22.15,0,0,1,.2,2.83A29.67,29.67,0,0,1,100,78.72Z"/><path d="M225.66,64.44a3.35,3.35,0,0,0-1-2,3.53,3.53,0,0,0-2-.7,2.6,2.6,0,0,0-2.07,1l-1.56,1.81c-2.42,3.1-4.8,6.2-7.12,9.33a87,87,0,0,1-7.61,8.93c-.27.27-.73.71-1.37,1.31s-1.31,1.22-2,1.82a22.84,22.84,0,0,1-2.06,1.61,3.07,3.07,0,0,1-1.62.71.83.83,0,0,1-.91-.81,12.13,12.13,0,0,1-.09-1.31,16.87,16.87,0,0,1,.45-3.53q.45-2.11,1.11-4.44t1.41-4.44c.5-1.41.93-2.55,1.26-3.43s.77-1.8,1.31-3a7.63,7.63,0,0,0,.81-3.08,3.85,3.85,0,0,0-1.31-2.93,4.32,4.32,0,0,0-3-1.21,3.36,3.36,0,0,0-2.32.81,6.48,6.48,0,0,0-1.51,2,7.83,7.83,0,0,0-.76,1.86c-.17.64-.35,1.3-.55,2-1,2.89-1.77,5.89-2.47,9a40.4,40.4,0,0,0-.83,5c-.75,1.12-1.56,2.24-2.45,3.35a29.54,29.54,0,0,1-4.45,4.49,23.06,23.06,0,0,1-5.24,3.23,14.67,14.67,0,0,1-6.05,1.26c-2.36,0-4-.65-5-2a8.67,8.67,0,0,1-1.51-5.41,19.94,19.94,0,0,1,.5-4.25,17.15,17.15,0,0,0,5.05-3,36.17,36.17,0,0,0,5.09-5.11,32.85,32.85,0,0,0,3.94-6,12.64,12.64,0,0,0,1.56-5.62,6.52,6.52,0,0,0-1.46-4.35,5.19,5.19,0,0,0-4.19-1.72,10.75,10.75,0,0,0-7.42,3.13,29.22,29.22,0,0,0-5.8,7.62,44.43,44.43,0,0,0-4.72,13.87l-.32.51a39.76,39.76,0,0,1-3.43,4.48,27.17,27.17,0,0,1-4,3.74,6.8,6.8,0,0,1-4.09,1.56,2.67,2.67,0,0,1-1.86-.6,3.54,3.54,0,0,1-1-1.52,7.18,7.18,0,0,1-.35-2c0-.7-.05-1.36-.05-2,0-2.36.06-4.71.2-7.06s.2-4.71.2-7.07c0-.74,0-1.65-.1-2.72a15.19,15.19,0,0,0-.56-3.23A7.25,7.25,0,0,0,141,61.72a3,3,0,0,0-2.42-1.11c-1.28,0-2.77.74-4.49,2.21a49.75,49.75,0,0,0-5.1,5.15q-2.52,2.93-4.69,6c-1.44,2-2.53,3.56-3.27,4.63.26-2,.6-3.9,1-5.85A36.08,36.08,0,0,1,123.7,67c.61-1.61,1.19-3.38,1.76-5.29a19.38,19.38,0,0,0,.86-5.51,4.24,4.24,0,0,0-.66-2.52,2.72,2.72,0,0,0-2.36-.9,5.6,5.6,0,0,0-3.69,1.51,6.18,6.18,0,0,0-2.17,3.33c-.34,1.54-.64,3.13-.91,4.74s-.57,3.2-.9,4.74q-1.51,7.27-3.08,15.14A78,78,0,0,0,111,97.53a3.09,3.09,0,0,0,.5,1.77,1.81,1.81,0,0,0,1.62.76,3.49,3.49,0,0,0,2.47-1,8.26,8.26,0,0,0,1.66-2.22c1.15-2.56,2.32-5.06,3.53-7.52a80.1,80.1,0,0,1,4-7.21c1.21-2,2.55-4,4-6.16a35.68,35.68,0,0,1,4.74-5.65c.27-.27.63-.61,1.11-1a2,2,0,0,1,1.21-.6c.4,0,.65.27.75.8a6.66,6.66,0,0,1,.16,1.21c0,2-.07,3.87-.21,5.76s-.2,3.8-.2,5.75c0,1.27.05,2.69.15,4.23a15.16,15.16,0,0,0,.91,4.34,8.75,8.75,0,0,0,2.22,3.38,5.78,5.78,0,0,0,4.09,1.37,11.16,11.16,0,0,0,5.8-1.82,31.49,31.49,0,0,0,5.65-4.44c.79-.78,1.53-1.58,2.25-2.4a22.16,22.16,0,0,0,.42,2.35,12.23,12.23,0,0,0,2,4.34,10.06,10.06,0,0,0,8.63,4.18,23.36,23.36,0,0,0,8-1.38,29.94,29.94,0,0,0,7.16-3.73,35.82,35.82,0,0,0,6.1-5.47c0,.18,0,.36.06.54a7.94,7.94,0,0,0,.8,2.63,5.51,5.51,0,0,0,1.67,1.92A4.7,4.7,0,0,0,195,93c1.68,0,3.69-.82,6-2.47A57.28,57.28,0,0,0,208,84.67a90.44,90.44,0,0,0,6.3-6.86,43.63,43.63,0,0,0,4.09-5.6q.3,7.88.3,15.64v2.92c0,.94,0,1.89-.1,2.83A92.83,92.83,0,0,0,210,99.86a77.41,77.41,0,0,0-8.58,8.12,46.91,46.91,0,0,0-6.66,9.33,20.79,20.79,0,0,0-2.67,10,17.79,17.79,0,0,0,.45,4,10.46,10.46,0,0,0,1.46,3.48,8.11,8.11,0,0,0,2.63,2.48,7.53,7.53,0,0,0,3.93.95,12.21,12.21,0,0,0,4.64-.9,19.54,19.54,0,0,0,4.14-2.32,24,24,0,0,0,3.58-3.28,29.42,29.42,0,0,0,2.88-3.79,50.08,50.08,0,0,0,5.8-12.41,92.9,92.9,0,0,0,3.13-13.67,125.54,125.54,0,0,0,1.31-14.13q.25-7.11.25-13.76V71.4c0-1.14-.05-2.32-.15-3.53A27.18,27.18,0,0,0,225.66,64.44ZM167,73.35a52.84,52.84,0,0,1,2.22-5.79A32.93,32.93,0,0,1,172,62.48c1-1.45,2-2.18,3-2.18a1.37,1.37,0,0,1,1.36.76,3.82,3.82,0,0,1,.35,1.58,9.3,9.3,0,0,1-1.11,4.21,27.36,27.36,0,0,1-6.26,8,27.7,27.7,0,0,1-3.53,2.68A34.33,34.33,0,0,1,167,73.35Zm50,32q-.81,4.09-2,8.23a71.58,71.58,0,0,1-2.72,7.92,28.16,28.16,0,0,1-3.59,6.4c-.47.61-1,1.26-1.61,2a17.45,17.45,0,0,1-2,2,11.46,11.46,0,0,1-2.22,1.51,5.1,5.1,0,0,1-2.37.61,2.85,2.85,0,0,1-2-.66,4.62,4.62,0,0,1-1.21-1.61,6.94,6.94,0,0,1-.61-2.12,16.37,16.37,0,0,1-.15-2.07,18.82,18.82,0,0,1,2.17-8.68,40.88,40.88,0,0,1,5.4-8,65.73,65.73,0,0,1,6.95-7c2.49-2.15,4.81-4.11,7-5.85A71.21,71.21,0,0,1,216.93,105.35Z"/><path d="M264.3,68.07a3.49,3.49,0,0,0-1.16-.2,7.94,7.94,0,0,0-1.56.15c-.51.1-1,.22-1.57.35-.81.14-1.62.24-2.42.31s-1.65.1-2.52.1c-.61,0-1.36,0-2.28,0s-1.83-.08-2.77-.15-1.85-.17-2.72-.31a10.72,10.72,0,0,1-2.12-.5A144.54,144.54,0,0,1,250.12,47a212.14,212.14,0,0,1,7.47-19.92c.87-1.95,1.8-3.89,2.78-5.8s1.89-3.86,2.77-5.81a9.08,9.08,0,0,0,.65-1.66,6.5,6.5,0,0,0,.26-1.87,3.93,3.93,0,0,0-.56-2.11,2.11,2.11,0,0,0-2-.91,7.78,7.78,0,0,0-2,.3,13.82,13.82,0,0,0-2.22.81,13,13,0,0,0-2.07,1.16,10.49,10.49,0,0,0-1.57,1.26,8.38,8.38,0,0,0-1.31,2c-.33.75-.67,1.49-1,2.23A230.16,230.16,0,0,0,240,56.32a220.12,220.12,0,0,0-3.78,41.11c0,.94,0,2.24.05,3.89s.14,3.39.3,5.24.42,3.74.76,5.65a26.08,26.08,0,0,0,1.46,5.25,11.39,11.39,0,0,0,2.42,3.83,4.87,4.87,0,0,0,3.59,1.47,11.13,11.13,0,0,0,8-3,22.65,22.65,0,0,0,5.1-7.41,37.64,37.64,0,0,0,2.68-9.29,57.77,57.77,0,0,0,.75-8.63,52.7,52.7,0,0,0-.3-5.34,44.2,44.2,0,0,0-1-5.85,30.52,30.52,0,0,0-1.91-5.55A13.2,13.2,0,0,0,255,73.32c.87,0,1.88,0,3,.05a14.65,14.65,0,0,0,3.23-.25,5.53,5.53,0,0,0,2.57-1.21,3.52,3.52,0,0,0,1.06-2.83C264.85,68.54,264.67,68.21,264.3,68.07ZM254.06,97.33c0,1.35-.05,2.67-.15,4a34.93,34.93,0,0,1-.56,4,33.1,33.1,0,0,1-.85,3.63,32.08,32.08,0,0,1-1.67,4.54,15.43,15.43,0,0,1-2.42,3.84,4.22,4.22,0,0,1-3.23,1.61c-1,0-1.7-.65-2.27-2a19.83,19.83,0,0,1-1.31-4.59,40,40,0,0,1-.56-5.09c-.06-1.65-.1-2.84-.1-3.58a124.78,124.78,0,0,1,.81-14.23c.53-4.7,1.18-9.41,1.91-14.12a15.17,15.17,0,0,1,4.9,3.93,21.51,21.51,0,0,1,3.18,5.35,29.2,29.2,0,0,1,1.76,6.15,37,37,0,0,1,.56,6.26Z"/><path d="M423.21,76.45a1.1,1.1,0,0,0-1.16-.71A2.25,2.25,0,0,0,420.23,77c-.54.81-1,1.48-1.31,2q-1,1.71-2.77,4.14a45.41,45.41,0,0,1-3.84,4.58,24.64,24.64,0,0,1-4.39,3.69,8.27,8.27,0,0,1-4.54,1.51c-1,0-1.81-.67-2.42-2a18,18,0,0,1-1.31-4.69,45.66,45.66,0,0,1-.5-5.24c-.07-1.72-.1-3-.1-3.69q2.42-4.74,5.39-11.3T410,52.38a134,134,0,0,0,4.29-13.87A50.44,50.44,0,0,0,416,26.4a29.3,29.3,0,0,0-.21-3.18,15.77,15.77,0,0,0-.8-3.58,8.46,8.46,0,0,0-1.72-2.92,3.77,3.77,0,0,0-2.92-1.22,5.21,5.21,0,0,0-3,1,25.34,25.34,0,0,0-2.57,2,19.65,19.65,0,0,0-3.94,5.25,64.59,64.59,0,0,0-3.38,7.31,73.91,73.91,0,0,0-2.72,8.48q-1.17,4.49-2,8.78t-1.26,8.22a67.26,67.26,0,0,0-.4,6.76A6.53,6.53,0,0,0,385.93,61,11.1,11.1,0,0,0,381,62.27a21.73,21.73,0,0,0-4.29,2.67,27.14,27.14,0,0,0-7,9.54,30.78,30.78,0,0,0-1.4,3.73c-.44.77-1,1.62-1.58,2.58a39.76,39.76,0,0,1-3.43,4.48,27.17,27.17,0,0,1-4,3.74,6.79,6.79,0,0,1-4.08,1.56,2.68,2.68,0,0,1-1.87-.6,3.54,3.54,0,0,1-1-1.52,7.18,7.18,0,0,1-.35-2c0-.7-.05-1.36-.05-2,0-2.36.06-4.71.2-7.06s.2-4.71.2-7.07c0-.74,0-1.65-.1-2.72a15.19,15.19,0,0,0-.56-3.23,7.25,7.25,0,0,0-1.36-2.72A3,3,0,0,0,348,60.61c-1.28,0-2.77.74-4.49,2.21A50.72,50.72,0,0,0,338.41,68c-1.69,2-3.25,3.94-4.7,6s-2.53,3.56-3.27,4.63c.26-2,.6-3.9,1-5.85A36.08,36.08,0,0,1,333.16,67c.61-1.61,1.19-3.38,1.76-5.29a19,19,0,0,0,.86-5.51,4.24,4.24,0,0,0-.65-2.52,2.76,2.76,0,0,0-2.37-.9,5.62,5.62,0,0,0-3.69,1.51,6.24,6.24,0,0,0-2.17,3.33c-.33,1.54-.63,3.13-.9,4.74s-.58,3.2-.91,4.74q-1.17,5.58-2.35,11.51c-.55.87-1.42,2.14-2.64,3.83s-2.75,3.65-4.29,5.5a47.11,47.11,0,0,1-4.64,4.84c-1.56,1.38-2.83,2.07-3.84,2.07a1.91,1.91,0,0,1-1.62-.86,6.12,6.12,0,0,1-.9-2,14.32,14.32,0,0,1-.41-2.37c-.06-.81-.1-1.44-.1-1.91a49.42,49.42,0,0,1,.31-5.25q.3-2.93.85-5.85t1.32-5.75q.75-2.83,1.56-5c.2-.61.42-1.23.65-1.87a5.49,5.49,0,0,0,.36-2c0-.74-.22-1.21-.66-1.42a3.71,3.71,0,0,0-1.56-.3,3.44,3.44,0,0,0-2.17.66,6.1,6.1,0,0,0-1.46,1.61,10.11,10.11,0,0,0-1,2.12c-.27.78-.54,1.46-.81,2.07a35.56,35.56,0,0,1-2,4c-.94,1.69-2,3.52-3.23,5.51s-2.52,4-3.93,6a62.39,62.39,0,0,1-4.29,5.49,28.51,28.51,0,0,1-4.24,4,6.49,6.49,0,0,1-3.78,1.56,1.57,1.57,0,0,1-1.67-1.51,16.85,16.85,0,0,1-.25-2.52,40.63,40.63,0,0,1,.46-5.75c.3-2.08.67-4.19,1.11-6.31s.94-4.19,1.51-6.2,1.13-3.87,1.67-5.55c.13-.54.28-1.09.45-1.67a5.77,5.77,0,0,0,.25-1.66c0-1.48-.77-2.22-2.32-2.22a7.14,7.14,0,0,0-6.86,4.94A52.83,52.83,0,0,0,272.47,74a68.47,68.47,0,0,0-.65,9.34c0,1.28,0,2.74.15,4.38a20.62,20.62,0,0,0,.8,4.65A9,9,0,0,0,274.89,96a5.56,5.56,0,0,0,4.19,1.51,10.91,10.91,0,0,0,5.7-1.76,32.6,32.6,0,0,0,5.5-4.29,47.34,47.34,0,0,0,4.79-5.35q2.18-2.82,3.69-4.94a9.39,9.39,0,0,0-.21,1.92V85c0,1.08.05,2.44.15,4.09a19.28,19.28,0,0,0,.86,4.69,11.56,11.56,0,0,0,2,3.83,4.41,4.41,0,0,0,3.63,1.62A11,11,0,0,0,311.37,97a41.25,41.25,0,0,0,6.25-5.35c1.25-1.29,2.41-2.61,3.5-4a76.81,76.81,0,0,0-.67,9.82,3.09,3.09,0,0,0,.5,1.77,1.81,1.81,0,0,0,1.62.76,3.49,3.49,0,0,0,2.47-1,8.06,8.06,0,0,0,1.66-2.22c1.15-2.56,2.33-5.06,3.53-7.52a80.1,80.1,0,0,1,4-7.21c1.21-2,2.56-4,4-6.16a36.77,36.77,0,0,1,4.74-5.65c.27-.27.64-.61,1.11-1a2,2,0,0,1,1.21-.6c.4,0,.66.27.75.8a6.66,6.66,0,0,1,.16,1.21c0,2-.07,3.87-.2,5.76s-.21,3.8-.21,5.75c0,1.27.05,2.69.16,4.23a14.82,14.82,0,0,0,.9,4.34,8.75,8.75,0,0,0,2.22,3.38,5.78,5.78,0,0,0,4.09,1.37A11.16,11.16,0,0,0,359,93.7a31.49,31.49,0,0,0,5.65-4.44c.88-.87,1.72-1.77,2.51-2.69a13.84,13.84,0,0,0,.32,2.39A13.43,13.43,0,0,0,368.58,92a7.7,7.7,0,0,0,1.86,2.48,4.1,4.1,0,0,0,2.78,1,10.39,10.39,0,0,0,4.84-1.42,37,37,0,0,0,5.15-3.38A52.63,52.63,0,0,0,388,86.54q2.22-2.22,3.63-3.74c.2,1.35.52,2.9,1,4.64a23.47,23.47,0,0,0,1.87,5,14.39,14.39,0,0,0,3,4,6.12,6.12,0,0,0,4.39,1.67,12.38,12.38,0,0,0,6.11-1.61,27.92,27.92,0,0,0,5.39-4,37.37,37.37,0,0,0,4.59-5.2q2.07-2.82,3.69-5.24c.4-.61.82-1.28,1.26-2a4.3,4.3,0,0,0,.65-2.22A4.11,4.11,0,0,0,423.21,76.45ZM388.1,80.18c-1.45,1.61-3,3.23-4.79,4.84a48.56,48.56,0,0,1-5.25,4.24,8.24,8.24,0,0,1-4.24,1.81.8.8,0,0,1-.91-.75,11.55,11.55,0,0,1-.1-1.26,18.39,18.39,0,0,1,1.52-6.86,28.08,28.08,0,0,1,4-6.92,25.47,25.47,0,0,1,5.75-5.34,11.76,11.76,0,0,1,6.66-2.17v4.34c0,1.41.07,2.86.2,4.34A22.93,22.93,0,0,1,388.1,80.18Zm10.34-12.31c0-1.48.14-3.44.4-5.9s.66-5.16,1.16-8.12,1.1-6,1.77-9.18,1.4-6.16,2.17-9a70.48,70.48,0,0,1,2.47-7.51,17.11,17.11,0,0,1,2.63-4.8l.7-.7a1.25,1.25,0,0,1,.91-.4.63.63,0,0,1,.6.35,2.71,2.71,0,0,1,.31.86,5.65,5.65,0,0,1,.1,1v.61a48.69,48.69,0,0,1-1.31,10.49q-1.32,5.85-3.28,11.81T402.78,59q-2.32,5.65-4.34,9.89Z"/><path d="M445.47,16.12V2.73h-4.78V0h12.8V2.73h-4.77V16.12Z"/><path d="M455.55,16.12V0h4.87l2.93,11,2.89-11h4.88V16.12h-3V3.43L464.9,16.12h-3.14L458.57,3.43V16.12Z"/></svg>