<svg id="Layer_1" data-name="Layer 1" xmlns="http://www.w3.org/2000/svg" viewBox="0 0 495.67 165"><defs><style>.cls-1{fill:#123b4c;}.cls-2{fill:#fff;}</style></defs><title>honeyfund-white</title><path class="cls-1" d="M177.67,90.48a25.89,25.89,0,0,0,2.72-4.26A9.26,9.26,0,0,0,181.5,82a3.67,3.67,0,0,0-.35-1.58,1.36,1.36,0,0,0-1.36-.76c-1,0-2,.73-3,2.18a32.92,32.92,0,0,0-2.82,5.08,49.07,49.07,0,0,0-2.22,5.79,30.59,30.59,0,0,0-1.11,4.21,30.46,30.46,0,0,0,3.53-2.69A27.48,27.48,0,0,0,177.67,90.48Z"/><path class="cls-1" d="M208.85,130.17a41.33,41.33,0,0,0-5.4,8,18.82,18.82,0,0,0-2.17,8.68,16.24,16.24,0,0,0,.15,2.07,6.86,6.86,0,0,0,.61,2.12,4.75,4.75,0,0,0,1.21,1.61,2.88,2.88,0,0,0,2,.66,5,5,0,0,0,2.36-.61,11.38,11.38,0,0,0,2.23-1.51,18.23,18.23,0,0,0,2-2c.61-.7,1.15-1.36,1.62-2a28.45,28.45,0,0,0,3.58-6.41,70.18,70.18,0,0,0,2.72-7.92c.78-2.76,1.43-5.5,2-8.23a71.21,71.21,0,0,0,1.11-7.41c-2.15,1.74-4.47,3.7-7,5.85A64.89,64.89,0,0,0,208.85,130.17Z"/><path class="cls-1" d="M104.11,87.49a7.14,7.14,0,0,0-1.61-2.32,3.69,3.69,0,0,0-2.62-1,6.66,6.66,0,0,0-5,2.32,20.36,20.36,0,0,0-3.64,5.56A33.73,33.73,0,0,0,89,98.74a27.87,27.87,0,0,0-.75,5.75,18.94,18.94,0,0,0,.2,2.68,9.39,9.39,0,0,0,.75,2.67,5.81,5.81,0,0,0,1.57,2.07,3.76,3.76,0,0,0,2.52.86,5.66,5.66,0,0,0,2.47-.56A11.13,11.13,0,0,0,98,110.85a15.13,15.13,0,0,0,3.28-3.58,21.29,21.29,0,0,0,2.22-4.39,26,26,0,0,0,1.26-4.79,29.67,29.67,0,0,0,.4-4.79,22.15,22.15,0,0,0-.2-2.83A10.24,10.24,0,0,0,104.11,87.49Z"/><path class="cls-1" d="M16,103.64a31.87,31.87,0,0,0-4.08,6.2A13.79,13.79,0,0,0,10.28,116a1.86,1.86,0,0,0,.66,1.41,2.12,2.12,0,0,0,1.46.61,3.6,3.6,0,0,0,1.87-.51,8,8,0,0,0,1.56-1.21,20.93,20.93,0,0,0,2.82-4.09c1.15-2,2.29-4.12,3.44-6.4s2.13-4.51,3-6.66a23.29,23.29,0,0,0,1.47-4.75,29.52,29.52,0,0,0-5.25,3.79A47.16,47.16,0,0,0,16,103.64Z"/><path class="cls-1" d="M256.47,104a21.69,21.69,0,0,0-3.18-5.35,15.13,15.13,0,0,0-4.89-3.93q-1.11,7.07-1.92,14.12a124.78,124.78,0,0,0-.8,14.23c0,.74,0,1.93.09,3.58a40.33,40.33,0,0,0,.56,5.1,20.12,20.12,0,0,0,1.31,4.59c.57,1.31,1.33,2,2.27,2a4.22,4.22,0,0,0,3.23-1.61,15.43,15.43,0,0,0,2.42-3.84,32.08,32.08,0,0,0,1.67-4.54,35.58,35.58,0,0,0,.86-3.63,34.88,34.88,0,0,0,.55-4c.1-1.32.15-2.64.15-4v-.3a36.83,36.83,0,0,0-.56-6.25A28.54,28.54,0,0,0,256.47,104Z"/><path class="cls-1" d="M411.8,66.76q2-6,3.28-11.8a48.85,48.85,0,0,0,1.31-10.5v-.61a4.85,4.85,0,0,0-.1-1A3,3,0,0,0,416,42a.66.66,0,0,0-.61-.35,1.23,1.23,0,0,0-.9.4l-.71.71a17,17,0,0,0-2.62,4.79,70.37,70.37,0,0,0-2.48,7.51q-1.16,4.25-2.17,9t-1.76,9.18c-.51,3-.89,5.66-1.16,8.12a57,57,0,0,0-.41,5.9v1q2-4.23,4.34-9.89T411.8,66.76Z"/><path class="cls-1" d="M395.5,87.14a11.75,11.75,0,0,0-6.65,2.17,25.33,25.33,0,0,0-5.76,5.35,27.84,27.84,0,0,0-4,6.91,18.36,18.36,0,0,0-1.51,6.86,9.36,9.36,0,0,0,.1,1.26.8.8,0,0,0,.91.75,8.25,8.25,0,0,0,4.23-1.81,47.61,47.61,0,0,0,5.25-4.24c1.75-1.61,3.34-3.23,4.79-4.84a22.14,22.14,0,0,0,2.88-3.73c-.14-1.48-.21-2.93-.21-4.34Z"/><path class="cls-2" d="M84.49,83.56a2.53,2.53,0,0,0,.76-1.87,2.37,2.37,0,0,0-1-2.27,9.13,9.13,0,0,0-2.42-.86,13.22,13.22,0,0,0-3-.45c-1,0-2,0-3,0H70.82c-1.61,0-3.26.07-4.94.2.94-2.76,2-5.61,3.22-8.57S71.63,63.8,73,60.91s2.91-5.72,4.49-8.48,3.21-5.35,4.89-7.77a9.75,9.75,0,0,1,1.31-1.61c.54-.54,1.06-1.11,1.57-1.72a10.89,10.89,0,0,0,1.26-1.86,4.15,4.15,0,0,0,.5-2c0-.74-.43-1.11-1.31-1.11a3.58,3.58,0,0,0-2.17.91,15.07,15.07,0,0,0-2.22,2.17c-.7.84-1.38,1.68-2,2.52s-1.13,1.53-1.47,2.07A152,152,0,0,0,67.54,61a166.22,166.22,0,0,0-8.12,18.06,70.15,70.15,0,0,0-11.51,2.17q-5.64,1.56-11.29,3.38Q38.33,78,39.54,71.1a79.26,79.26,0,0,0,1.21-13.83,36.76,36.76,0,0,0-.45-5.55,17.84,17.84,0,0,0-1.67-5.34,11.37,11.37,0,0,0-3.33-4,8.76,8.76,0,0,0-5.45-1.61,15.36,15.36,0,0,0-2.36.3,23.28,23.28,0,0,0-3.33.86,18.42,18.42,0,0,0-3,1.26c-.87.47-1.31,1-1.31,1.61A1.57,1.57,0,0,0,20.63,46a2.35,2.35,0,0,0,1.35.55,4,4,0,0,0,1.67-.35,3.84,3.84,0,0,1,1.66-.36,4.11,4.11,0,0,1,3.28,1.47,9.8,9.8,0,0,1,1.92,3.48A21.45,21.45,0,0,1,31.42,55a32.35,32.35,0,0,1,.25,3.69c0,.47-.08,1.51-.25,3.13s-.39,3.49-.65,5.64-.6,4.41-1,6.77-.71,4.54-1,6.55-.59,3.69-.86,5A7.57,7.57,0,0,1,27.33,88a34.17,34.17,0,0,1-3.63,2.42,34.17,34.17,0,0,0-3.63,2.42,67.39,67.39,0,0,0-5.25,4.49,46.08,46.08,0,0,0-5,5.55,29.09,29.09,0,0,0-3.68,6.26,16.8,16.8,0,0,0-1.42,6.7A10.08,10.08,0,0,0,6.9,122.5q2.17,2.58,6.51,2.58a9.8,9.8,0,0,0,5.7-1.87A20.67,20.67,0,0,0,24,118.32a46,46,0,0,0,4-6.81c1.21-2.53,2.28-5.06,3.23-7.62s1.76-5,2.47-7.32,1.29-4.25,1.77-5.8a106.32,106.32,0,0,1,11-4.19A103.59,103.59,0,0,1,57.8,83.71a69.93,69.93,0,0,0-2.72,10,54.31,54.31,0,0,0-1,10.34,38.77,38.77,0,0,0,.36,5A12.06,12.06,0,0,0,56,113.88a7.11,7.11,0,0,0,1.51,1.81,3.12,3.12,0,0,0,2.12.91,2.53,2.53,0,0,0,1.47-.56,1.62,1.62,0,0,0,.75-1.35,2.76,2.76,0,0,0-.35-1c-.24-.48-.51-1.06-.81-1.77a19.26,19.26,0,0,1-.81-2.37,11.08,11.08,0,0,1-.35-2.83,55.07,55.07,0,0,1,.35-5.9c.24-2.12.57-4.24,1-6.36s1-4.2,1.56-6.25a34.51,34.51,0,0,1,2.12-5.5c1.28-.14,2.54-.25,3.79-.35s2.5-.15,3.78-.15a13.83,13.83,0,0,1,5.35,1,13.08,13.08,0,0,0,5.15,1.06A2.53,2.53,0,0,0,84.49,83.56ZM25.06,99.15q-1.26,3.22-3,6.66c-1.15,2.28-2.29,4.42-3.44,6.4a20.93,20.93,0,0,1-2.82,4.09,8,8,0,0,1-1.56,1.21,3.6,3.6,0,0,1-1.87.51,2.12,2.12,0,0,1-1.46-.61,1.86,1.86,0,0,1-.66-1.41,13.79,13.79,0,0,1,1.62-6.16,31.87,31.87,0,0,1,4.08-6.2,47.16,47.16,0,0,1,5.3-5.45,29.52,29.52,0,0,1,5.25-3.79A23.29,23.29,0,0,1,25.06,99.15Z"/><path class="cls-2" d="M107.39,82.2a9.34,9.34,0,0,0-2.87-3.33,7.7,7.7,0,0,0-4.64-1.31,12.49,12.49,0,0,0-8,2.77A25.1,25.1,0,0,0,86,87.14a34.08,34.08,0,0,0-3.69,8.68A32.56,32.56,0,0,0,81,104.29a23.15,23.15,0,0,0,.5,4.64,14.47,14.47,0,0,0,1.62,4.34,9.6,9.6,0,0,0,3,3.18,8.05,8.05,0,0,0,4.6,1.26,11.74,11.74,0,0,0,4.13-.75,19.8,19.8,0,0,0,3.74-1.87,19.22,19.22,0,0,0,4.94-4.65,27.72,27.72,0,0,0,3.33-5.85,30.78,30.78,0,0,0,1.92-6.5,38.38,38.38,0,0,0,.6-6.71,25.84,25.84,0,0,0-.45-4.74A15.42,15.42,0,0,0,107.39,82.2Zm-2.67,15.89a26,26,0,0,1-1.26,4.79,21.29,21.29,0,0,1-2.22,4.39A15.13,15.13,0,0,1,98,110.85a11.13,11.13,0,0,1-2.17,1.36,5.66,5.66,0,0,1-2.47.56,3.76,3.76,0,0,1-2.52-.86,5.81,5.81,0,0,1-1.57-2.07,9.39,9.39,0,0,1-.75-2.67,18.94,18.94,0,0,1-.2-2.68A27.87,27.87,0,0,1,89,98.74a33.73,33.73,0,0,1,2.22-6.65,20.36,20.36,0,0,1,3.64-5.56,6.66,6.66,0,0,1,5-2.32,3.69,3.69,0,0,1,2.62,1,7.14,7.14,0,0,1,1.61,2.32,10.24,10.24,0,0,1,.81,3,22.15,22.15,0,0,1,.2,2.83A29.67,29.67,0,0,1,104.72,98.09Z"/><path class="cls-2" d="M230.39,83.81a3.35,3.35,0,0,0-1-2,3.5,3.5,0,0,0-2-.7,2.6,2.6,0,0,0-2.06,1l-1.57,1.81c-2.42,3.1-4.79,6.2-7.11,9.33a85.81,85.81,0,0,1-7.62,8.93l-1.36,1.32c-.64.6-1.32,1.21-2,1.81a24.41,24.41,0,0,1-2.07,1.61,3.08,3.08,0,0,1-1.61.71.82.82,0,0,1-.91-.8,10.55,10.55,0,0,1-.1-1.32,17.57,17.57,0,0,1,.45-3.53q.45-2.11,1.11-4.44c.44-1.54.91-3,1.42-4.44s.92-2.55,1.26-3.43.77-1.8,1.31-3a7.76,7.76,0,0,0,.8-3.08A3.84,3.84,0,0,0,206,80.68a4.35,4.35,0,0,0-3-1.21,3.32,3.32,0,0,0-2.31.81,6.67,6.67,0,0,0-1.52,2,7.56,7.56,0,0,0-.75,1.86c-.17.64-.36,1.3-.56,2-.94,2.89-1.76,5.89-2.47,9a40.71,40.71,0,0,0-.83,5c-.75,1.12-1.56,2.24-2.45,3.36a29.87,29.87,0,0,1-4.44,4.48,23.34,23.34,0,0,1-5.25,3.23,14.51,14.51,0,0,1-6,1.26c-2.36,0-4-.65-5.05-2a8.67,8.67,0,0,1-1.51-5.41,20.61,20.61,0,0,1,.5-4.25,17.31,17.31,0,0,0,5-3,36.25,36.25,0,0,0,5.09-5.12,32.33,32.33,0,0,0,3.94-6,12.64,12.64,0,0,0,1.56-5.62,6.47,6.47,0,0,0-1.46-4.35A5.21,5.21,0,0,0,180.29,75a10.71,10.71,0,0,0-7.41,3.13,28.79,28.79,0,0,0-5.8,7.62,43,43,0,0,0-3.74,9.33,44.45,44.45,0,0,0-1,4.54l-.32.51a38.61,38.61,0,0,1-3.43,4.48,27.63,27.63,0,0,1-4,3.74,6.82,6.82,0,0,1-4.09,1.56,2.68,2.68,0,0,1-1.87-.6,3.54,3.54,0,0,1-1-1.52,7.18,7.18,0,0,1-.35-2c0-.7,0-1.36,0-2,0-2.35.07-4.71.2-7.06s.2-4.71.2-7.07c0-.74,0-1.64-.1-2.72a15.82,15.82,0,0,0-.55-3.23,7.48,7.48,0,0,0-1.36-2.72A3,3,0,0,0,143.26,80c-1.28,0-2.77.74-4.49,2.22a49.56,49.56,0,0,0-5.09,5.14q-2.53,2.93-4.69,6t-3.28,4.64c.27-2,.6-3.9,1-5.85a35.15,35.15,0,0,1,1.71-5.76c.61-1.61,1.2-3.38,1.77-5.29a19.34,19.34,0,0,0,.85-5.5A4.2,4.2,0,0,0,130.4,73a2.73,2.73,0,0,0-2.37-.91,5.57,5.57,0,0,0-3.68,1.51A6.26,6.26,0,0,0,122.17,77q-.49,2.33-.9,4.74c-.27,1.62-.57,3.2-.91,4.74q-1.52,7.27-3.08,15.14a78.81,78.81,0,0,0-1.56,15.33,3.07,3.07,0,0,0,.5,1.77,1.83,1.83,0,0,0,1.62.76,3.49,3.49,0,0,0,2.47-1A7.91,7.91,0,0,0,122,116.2c1.15-2.56,2.33-5.06,3.53-7.52a82.63,82.63,0,0,1,4-7.21q1.82-2.93,4-6.16a36.77,36.77,0,0,1,4.74-5.65c.27-.26.64-.6,1.11-1a2,2,0,0,1,1.21-.6c.4,0,.66.27.76.8a7.51,7.51,0,0,1,.15,1.22c0,2-.07,3.86-.2,5.75s-.2,3.8-.2,5.75c0,1.28,0,2.69.15,4.24a15,15,0,0,0,.91,4.34,8.65,8.65,0,0,0,2.21,3.37,5.78,5.78,0,0,0,4.09,1.37,11.13,11.13,0,0,0,5.8-1.82,31.14,31.14,0,0,0,5.65-4.44q1.18-1.17,2.25-2.4a19.89,19.89,0,0,0,.43,2.35,12.21,12.21,0,0,0,2,4.34,10.1,10.1,0,0,0,8.63,4.18,23.32,23.32,0,0,0,8-1.38,29.82,29.82,0,0,0,7.17-3.73,35.34,35.34,0,0,0,6.09-5.47l.06.55a7.73,7.73,0,0,0,.81,2.62,5.4,5.4,0,0,0,1.66,1.92,4.71,4.71,0,0,0,2.78.75q2.52,0,6-2.47a57.28,57.28,0,0,0,6.91-5.85A90.62,90.62,0,0,0,219,97.18a43.36,43.36,0,0,0,4.08-5.6c.21,5.25.3,10.46.3,15.64v2.93q0,1.41-.09,2.82a91.52,91.52,0,0,0-8.53,6.26,77.41,77.41,0,0,0-8.58,8.12,47.74,47.74,0,0,0-6.66,9.33,20.85,20.85,0,0,0-2.67,10,17.24,17.24,0,0,0,.46,4,10.31,10.31,0,0,0,1.46,3.49,8.05,8.05,0,0,0,2.62,2.47,7.58,7.58,0,0,0,3.93.95,12.26,12.26,0,0,0,4.65-.9,19.54,19.54,0,0,0,4.14-2.32,24.47,24.47,0,0,0,3.58-3.28,29.94,29.94,0,0,0,2.87-3.78,50,50,0,0,0,5.8-12.42,92.9,92.9,0,0,0,3.13-13.67,123.28,123.28,0,0,0,1.31-14.12q.26-7.12.25-13.77V90.77c0-1.14,0-2.32-.15-3.53A27.18,27.18,0,0,0,230.39,83.81Zm-58.67,8.91a49.07,49.07,0,0,1,2.22-5.79,32.92,32.92,0,0,1,2.82-5.08c1-1.45,2-2.18,3-2.18a1.36,1.36,0,0,1,1.36.76A3.67,3.67,0,0,1,181.5,82a9.26,9.26,0,0,1-1.11,4.21,25.89,25.89,0,0,1-2.72,4.26,27.48,27.48,0,0,1-3.53,3.76,30.46,30.46,0,0,1-3.53,2.69A30.59,30.59,0,0,1,171.72,92.72Zm49.94,32c-.54,2.73-1.19,5.47-2,8.23a70.18,70.18,0,0,1-2.72,7.92,28.45,28.45,0,0,1-3.58,6.41c-.47.6-1,1.26-1.62,2a18.23,18.23,0,0,1-2,2,11.38,11.38,0,0,1-2.23,1.51,5,5,0,0,1-2.36.61,2.88,2.88,0,0,1-2-.66,4.75,4.75,0,0,1-1.21-1.61,6.86,6.86,0,0,1-.61-2.12,16.24,16.24,0,0,1-.15-2.07,18.82,18.82,0,0,1,2.17-8.68,41.33,41.33,0,0,1,5.4-8,64.89,64.89,0,0,1,7-7c2.49-2.15,4.81-4.11,7-5.85A71.21,71.21,0,0,1,221.66,124.72Z"/><path class="cls-2" d="M269,87.44a3.45,3.45,0,0,0-1.16-.2,7.94,7.94,0,0,0-1.56.15q-.76.15-1.56.36-1.22.19-2.43.3c-.81.07-1.65.1-2.52.1-.61,0-1.36,0-2.27-.05S255.7,88,254.76,88s-1.85-.17-2.73-.31a10.9,10.9,0,0,1-2.12-.5,142.8,142.8,0,0,1,5-20.73,212.26,212.26,0,0,1,7.46-19.93c.87-1.95,1.8-3.89,2.78-5.8s1.9-3.85,2.77-5.8a10.35,10.35,0,0,0,.66-1.67,6.88,6.88,0,0,0,.25-1.87,4,4,0,0,0-.56-2.11,2.1,2.1,0,0,0-2-.91,7.79,7.79,0,0,0-2,.3,14.18,14.18,0,0,0-2.22.81A13,13,0,0,0,260,30.59a9.88,9.88,0,0,0-1.56,1.26,7.7,7.7,0,0,0-1.31,2c-.34.74-.68,1.48-1,2.22a229.31,229.31,0,0,0-11.36,39.6,220.12,220.12,0,0,0-3.78,41.11c0,.94,0,2.24,0,3.89s.14,3.39.31,5.24.42,3.74.75,5.65a26.08,26.08,0,0,0,1.46,5.25,11.4,11.4,0,0,0,2.43,3.84,4.88,4.88,0,0,0,3.58,1.46,11.16,11.16,0,0,0,8-3,22.37,22.37,0,0,0,5.09-7.41,37.64,37.64,0,0,0,2.68-9.29,57.91,57.91,0,0,0,.76-8.63,52.9,52.9,0,0,0-.31-5.34,45.86,45.86,0,0,0-1-5.85A31.32,31.32,0,0,0,262.83,97a13.06,13.06,0,0,0-3.13-4.34c.87,0,1.88,0,3,0a14.51,14.51,0,0,0,3.22-.25,5.62,5.62,0,0,0,2.58-1.21,3.56,3.56,0,0,0,1.06-2.83A1,1,0,0,0,269,87.44ZM258.79,116.7c0,1.35-.05,2.67-.15,4a34.88,34.88,0,0,1-.55,4,35.58,35.58,0,0,1-.86,3.63,32.08,32.08,0,0,1-1.67,4.54,15.43,15.43,0,0,1-2.42,3.84,4.22,4.22,0,0,1-3.23,1.61c-.94,0-1.7-.65-2.27-2a20.12,20.12,0,0,1-1.31-4.59,40.33,40.33,0,0,1-.56-5.1c-.06-1.65-.09-2.84-.09-3.58a124.78,124.78,0,0,1,.8-14.23q.81-7,1.92-14.12a15.13,15.13,0,0,1,4.89,3.93,21.69,21.69,0,0,1,3.18,5.35,28.54,28.54,0,0,1,1.76,6.16,36.83,36.83,0,0,1,.56,6.25Z"/><path class="cls-2" d="M427.94,95.82a1.09,1.09,0,0,0-1.16-.71A2.22,2.22,0,0,0,425,96.32c-.54.81-1,1.48-1.31,2-.68,1.14-1.6,2.52-2.78,4.14a46.57,46.57,0,0,1-3.83,4.59,24.58,24.58,0,0,1-4.39,3.68,8.32,8.32,0,0,1-4.54,1.51c-1,0-1.82-.67-2.43-2a17.7,17.7,0,0,1-1.3-4.68,46.1,46.1,0,0,1-.51-5.25c-.07-1.72-.1-3-.1-3.68,1.62-3.17,3.41-6.93,5.4-11.31s3.83-8.89,5.55-13.57A135.62,135.62,0,0,0,419,57.88a50.44,50.44,0,0,0,1.72-12.11,31.71,31.71,0,0,0-.2-3.18,15.79,15.79,0,0,0-.81-3.58A8.38,8.38,0,0,0,418,36.09a3.8,3.8,0,0,0-2.93-1.21,5.16,5.16,0,0,0-3,1,25,25,0,0,0-2.57,2,19.85,19.85,0,0,0-3.93,5.25,64.59,64.59,0,0,0-3.38,7.31,72,72,0,0,0-2.73,8.48q-1.15,4.48-2,8.78t-1.27,8.22a67.26,67.26,0,0,0-.4,6.76,6.52,6.52,0,0,0-5.15-2.32,11.14,11.14,0,0,0-4.89,1.26,22,22,0,0,0-4.29,2.67,27.14,27.14,0,0,0-7,9.54,30.78,30.78,0,0,0-1.4,3.73c-.44.77-1,1.63-1.58,2.58a38.61,38.61,0,0,1-3.43,4.48,27.63,27.63,0,0,1-4,3.74,6.8,6.8,0,0,1-4.09,1.56,2.68,2.68,0,0,1-1.87-.6,3.73,3.73,0,0,1-1-1.52,7.18,7.18,0,0,1-.35-2c0-.7-.05-1.36-.05-2,0-2.35.07-4.71.2-7.06s.2-4.71.2-7.07c0-.74,0-1.64-.09-2.72a15.85,15.85,0,0,0-.56-3.23,7.48,7.48,0,0,0-1.36-2.72A3,3,0,0,0,352.73,80c-1.29,0-2.78.74-4.5,2.22a49.56,49.56,0,0,0-5.09,5.14c-1.68,2-3.25,3.94-4.69,6s-2.54,3.56-3.28,4.64c.27-2,.6-3.9,1-5.85a35.15,35.15,0,0,1,1.71-5.76c.61-1.61,1.2-3.38,1.77-5.29a19.37,19.37,0,0,0,.86-5.5,4.2,4.2,0,0,0-.66-2.52,2.73,2.73,0,0,0-2.37-.91,5.57,5.57,0,0,0-3.68,1.51A6.18,6.18,0,0,0,331.64,77c-.34,1.55-.64,3.13-.91,4.74s-.57,3.2-.91,4.74q-1.15,5.58-2.35,11.51c-.55.87-1.42,2.14-2.64,3.83s-2.74,3.65-4.29,5.5a47.11,47.11,0,0,1-4.64,4.84c-1.55,1.38-2.83,2.07-3.83,2.07a1.89,1.89,0,0,1-1.62-.86,6.13,6.13,0,0,1-.91-2,13.33,13.33,0,0,1-.4-2.37c-.07-.8-.1-1.44-.1-1.91a52,52,0,0,1,.3-5.25q.3-2.92.86-5.85t1.31-5.75q.75-2.83,1.56-5c.21-.61.42-1.23.66-1.87a5.7,5.7,0,0,0,.35-2q0-1.11-.66-1.41a3.53,3.53,0,0,0-1.56-.31,3.46,3.46,0,0,0-2.17.66,6.26,6.26,0,0,0-1.46,1.61,10.64,10.64,0,0,0-1,2.12q-.41,1.17-.81,2.07a36,36,0,0,1-2,4c-.95,1.68-2,3.51-3.23,5.5s-2.53,4-3.94,6a66.13,66.13,0,0,1-4.28,5.5,29.43,29.43,0,0,1-4.24,4,6.51,6.51,0,0,1-3.79,1.57,1.57,1.57,0,0,1-1.66-1.51,15.72,15.72,0,0,1-.25-2.53,40.53,40.53,0,0,1,.45-5.75c.3-2.08.67-4.19,1.11-6.31s.94-4.19,1.51-6.2,1.13-3.87,1.67-5.55c.13-.54.28-1.09.45-1.66a5.83,5.83,0,0,0,.25-1.67q0-2.22-2.31-2.22A7.13,7.13,0,0,0,282,80.58a7.22,7.22,0,0,0-2.68,3.63,52,52,0,0,0-2.06,9.14,68.26,68.26,0,0,0-.66,9.33c0,1.28.05,2.74.15,4.39a20.08,20.08,0,0,0,.81,4.64,8.83,8.83,0,0,0,2.12,3.68,5.53,5.53,0,0,0,4.18,1.51,10.77,10.77,0,0,0,5.7-1.76,32.6,32.6,0,0,0,5.5-4.29,47.44,47.44,0,0,0,4.8-5.35q2.16-2.82,3.68-4.94a9.35,9.35,0,0,0-.2,1.92v1.91c0,1.08,0,2.44.15,4.09a19.76,19.76,0,0,0,.85,4.69,11.9,11.9,0,0,0,2,3.84,4.46,4.46,0,0,0,3.64,1.61,11,11,0,0,0,6.15-2.22,40.77,40.77,0,0,0,6.25-5.35c1.25-1.29,2.41-2.61,3.51-4a74.8,74.8,0,0,0-.68,9.81,3.14,3.14,0,0,0,.5,1.77,1.83,1.83,0,0,0,1.62.76,3.47,3.47,0,0,0,2.47-1,7.91,7.91,0,0,0,1.66-2.22c1.15-2.56,2.33-5.06,3.54-7.52a80,80,0,0,1,4-7.21q1.81-2.93,4-6.16a36.77,36.77,0,0,1,4.74-5.65c.27-.26.64-.6,1.11-1a2.05,2.05,0,0,1,1.21-.6c.4,0,.66.27.76.8a7.51,7.51,0,0,1,.15,1.22c0,2-.07,3.86-.2,5.75s-.2,3.8-.2,5.75c0,1.28.05,2.69.15,4.24a15,15,0,0,0,.91,4.34,8.65,8.65,0,0,0,2.21,3.37,5.78,5.78,0,0,0,4.09,1.37,11.13,11.13,0,0,0,5.8-1.82,31.14,31.14,0,0,0,5.65-4.44c.89-.87,1.72-1.77,2.51-2.69a14.89,14.89,0,0,0,.32,2.39,14.19,14.19,0,0,0,1.06,3.08,7.77,7.77,0,0,0,1.86,2.47,4.12,4.12,0,0,0,2.78,1,10.36,10.36,0,0,0,4.84-1.42,35.58,35.58,0,0,0,5.15-3.38,51.29,51.29,0,0,0,4.74-4.18q2.22-2.22,3.63-3.74c.2,1.35.53,2.9,1,4.65a23.59,23.59,0,0,0,1.87,5,14.64,14.64,0,0,0,3,4,6.12,6.12,0,0,0,4.39,1.67,12.38,12.38,0,0,0,6.11-1.61,28,28,0,0,0,5.4-4,37.37,37.37,0,0,0,4.59-5.2c1.38-1.88,2.6-3.63,3.68-5.24.4-.61.82-1.28,1.26-2a4.31,4.31,0,0,0,.66-2.22A4.13,4.13,0,0,0,427.94,95.82Zm-35.11,3.73c-1.45,1.61-3,3.23-4.79,4.84a47.61,47.61,0,0,1-5.25,4.24,8.25,8.25,0,0,1-4.23,1.81.8.8,0,0,1-.91-.75,9.36,9.36,0,0,1-.1-1.26,18.36,18.36,0,0,1,1.51-6.86,27.84,27.84,0,0,1,4-6.91,25.33,25.33,0,0,1,5.76-5.35,11.75,11.75,0,0,1,6.65-2.17v4.34c0,1.41.07,2.86.21,4.34A22.14,22.14,0,0,1,392.83,99.55Zm10.34-12.31a57,57,0,0,1,.41-5.9c.27-2.46.65-5.16,1.16-8.12s1.09-6,1.76-9.18,1.4-6.16,2.17-9a70.37,70.37,0,0,1,2.48-7.51,17,17,0,0,1,2.62-4.79l.71-.71a1.23,1.23,0,0,1,.9-.4A.66.66,0,0,1,416,42a3,3,0,0,1,.3.86,4.85,4.85,0,0,1,.1,1v.61A48.85,48.85,0,0,1,415.08,55q-1.31,5.85-3.28,11.8t-4.29,11.6q-2.31,5.65-4.34,9.89Z"/><path class="cls-2" d="M450.2,35.49V22.1h-4.78V19.37h12.81V22.1h-4.77V35.49Z"/><path class="cls-2" d="M460.28,35.49V19.37h4.87l2.93,11,2.89-11h4.88V35.49h-3V22.8l-3.2,12.69H466.5L463.31,22.8V35.49Z"/></svg>