<svg id="Layer_2" data-name="Layer 2" xmlns="http://www.w3.org/2000/svg" viewBox="0 0 180 76.52"><defs><style>.cls-1{fill-rule:evenodd;}</style></defs><title>wayfair</title><path class="cls-1" d="M139,.94c1.2-.31,2.39-.65,3.59-.94,1.11,1.13,2.24,2.24,3.36,3.36s2,2,3,3l0,0Q142.61,12.7,136.3,19c-2.14-2.12-4.25-4.26-6.39-6.37q1.32-5,2.65-10L139,.94Z"/><path class="cls-1" d="M155.32,0c3.34.86,6.67,1.76,10,2.64q1.17,4.44,2.35,8.88c.09.37.21.74.29,1.12L161.6,19l0,0c-1.79-1.82-3.61-3.61-5.41-5.42q-3.1-3.12-6.23-6.23c-.34-.33-.65-.68-1-1l0,0L155.32,0Z"/><path class="cls-1" d="M136.3,19q6.33-6.3,12.64-12.63c.35.31.66.66,1,1q3.12,3.1,6.23,6.23c1.8,1.81,3.62,3.6,5.41,5.42q-5.76,5.76-11.53,11.53c-.38.36-.72.76-1.13,1.09L136.31,19Z"/><path class="cls-1" d="M102.83,30.26a8.7,8.7,0,0,1,4-1.31,18.27,18.27,0,0,1,4.18.14,14.43,14.43,0,0,1,4.53,1.43V36c-1.39,0-2.77,0-4.16,0,0-.85,0-1.7,0-2.54a4.87,4.87,0,0,0-1.43-.86,3.22,3.22,0,0,0-2-.07,1.93,1.93,0,0,0-1.21,1,5.56,5.56,0,0,0-.48,1.74,17.69,17.69,0,0,0-.12,2.41V41h6.63c0,1.18,0,2.36,0,3.54-2.21,0-4.41,0-6.62,0v19.1h4.12c0,1.18,0,2.36,0,3.54-4.91,0-9.83,0-14.75,0V63.59H99V44.49c-2.1,0-4.19,0-6.29,0L79,75c-.23.52-.46,1-.7,1.55h-6c-.47,0-.93,0-1.4,0,1.58-1.92,3.12-3.87,4.69-5.8l3.13-3.89-10-22.32c-.68,0-1.37,0-2.06,0,0-1.18,0-2.36,0-3.53H79.33c0,1.18,0,2.36,0,3.54-1,0-1.94,0-2.9,0,1.13,2.51,2.24,5,3.36,7.54,1,2.21,2,4.4,2.93,6.61,1.14-2.52,2.25-5,3.39-7.56,1-2.2,2-4.39,2.94-6.6H86.13c0-1.18,0-2.36,0-3.54H99a25.23,25.23,0,0,1,.24-4.35,11.06,11.06,0,0,1,1.47-4.18,7,7,0,0,1,2.11-2.17Z"/><path class="cls-1" d="M43.88,42.54a23.39,23.39,0,0,1,9-2.18,20.66,20.66,0,0,1,4.44.32A9.65,9.65,0,0,1,61,42.13a6.19,6.19,0,0,1,2.25,2.78,7.82,7.82,0,0,1,.55,2.29c.08.71,0,1.43.05,2.14v9.3A18.16,18.16,0,0,0,64,61.4a3.72,3.72,0,0,0,.55,1.51,1.56,1.56,0,0,0,1,.67,3.11,3.11,0,0,0,1.21-.1c.12,1.22.21,2.43.32,3.65a11.17,11.17,0,0,1-4.4.55,5.75,5.75,0,0,1-3.54-1.61,7.56,7.56,0,0,1-1.42-1.95A15.11,15.11,0,0,1,55,66.28a10,10,0,0,1-4.29,1.41,9.08,9.08,0,0,1-4.54-.76,7.35,7.35,0,0,1-4-4.87,9.43,9.43,0,0,1,.09-4.48,6.67,6.67,0,0,1,2.13-3.41,9.58,9.58,0,0,1,3.46-1.78,31.37,31.37,0,0,1,9-1c0-1.08,0-2.16,0-3.24A4.61,4.61,0,0,0,55.72,45a4.39,4.39,0,0,0-3.24-1.13A7.11,7.11,0,0,0,48,45.46c-.11.76-.2,1.52-.31,2.28-1.28,0-2.57,0-3.85,0v-5.2ZM53.5,54.8A6.94,6.94,0,0,0,50.27,56a3.8,3.8,0,0,0-1.39,2.35,4.77,4.77,0,0,0,.3,2.77,3.69,3.69,0,0,0,2.22,2,4.49,4.49,0,0,0,2.89-.23,8.26,8.26,0,0,0,2.49-1.59c0-2.22,0-4.45,0-6.67a18.09,18.09,0,0,0-3.29.14Z"/><path class="cls-1" d="M117.73,42.56A22.76,22.76,0,0,1,126,40.4a19.65,19.65,0,0,1,6,.46,7.81,7.81,0,0,1,4.26,2.56,7.56,7.56,0,0,1,1.47,4.65V59.92a7.3,7.3,0,0,0,.36,2.41,2,2,0,0,0,1,1.15,2.74,2.74,0,0,0,1.58,0c.09,1.22.21,2.43.3,3.64a11.44,11.44,0,0,1-4.34.56,6,6,0,0,1-2.91-1,7.25,7.25,0,0,1-2.11-2.52A14,14,0,0,1,127.48,67a9.68,9.68,0,0,1-5.65.58A7.52,7.52,0,0,1,116,62.21a9.17,9.17,0,0,1-.17-3.5,7.39,7.39,0,0,1,1.31-3.42,8.46,8.46,0,0,1,4.44-2.88,30.76,30.76,0,0,1,9.07-1c0-1.15,0-2.3,0-3.45a3.83,3.83,0,0,0-4.32-4.1,7.06,7.06,0,0,0-4.42,1.57c-.11.75-.2,1.51-.32,2.27q-1.92,0-3.84,0c0-1.73,0-3.46,0-5.18Zm9.54,12.25a7.16,7.16,0,0,0-2.8,1,3.7,3.7,0,0,0-1.58,2,4.91,4.91,0,0,0-.11,2.58,3.76,3.76,0,0,0,2.35,2.72,4.27,4.27,0,0,0,2.55,0,8.39,8.39,0,0,0,2.81-1.61c.06-.07.18-.12.15-.23,0-2.2,0-4.39,0-6.59a19.09,19.09,0,0,0-3.38.15Z"/><path class="cls-1" d="M177.2,40.42a5.66,5.66,0,0,1,2.8.24V48.3h-4.13c0-.81,0-1.62,0-2.43a6.54,6.54,0,0,0-3.33,1,9.67,9.67,0,0,0-2.5,2.4c0,4.77,0,9.55,0,14.32h3.51c0,1.18,0,2.36,0,3.54-1.66,0-3.32,0-5,0H159.4c0-1.18,0-2.36,0-3.55h3.54q0-9.54,0-19.09c-1.17,0-2.35,0-3.52,0,0-1.17,0-2.35,0-3.53H170c0,1.61,0,3.23,0,4.84a13.48,13.48,0,0,1,2.49-3.22,8.31,8.31,0,0,1,4.69-2.16Z"/><path class="cls-1" d="M0,41H11.87c0,1.17,0,2.35,0,3.52-1.08,0-2.15,0-3.23,0q2.2,6.62,4.4,13.23a1.36,1.36,0,0,0,.11.28q3.11-8.07,6.22-16.13c.12-.3.22-.61.36-.91h3.62q3.09,8.52,6.18,17c1.53-4.49,3-9,4.52-13.49-1.08,0-2.17,0-3.25,0,0-1.18,0-2.36,0-3.53h9v3.54H37.74Q33.9,56,30.08,67.42c-1.08,0-2.16,0-3.23,0-.1,0-.22,0-.31,0L20.6,51c-.16-.44-.31-.88-.49-1.32q-3.41,8.87-6.86,17.73H9.58Q5.83,55.95,2.07,44.49c-.69,0-1.37,0-2.06,0C0,43.32,0,42.14,0,41Z"/><path class="cls-1" d="M143.27,41h10.62c0,7.54,0,15.08,0,22.63h3.51c0,1.18,0,2.37,0,3.55H143.28V63.59h3.51q0-9.54,0-19.09c-1.18,0-2.35,0-3.52,0,0-1.18,0-2.35,0-3.53Z"/><path class="cls-1" d="M161.58,19l0,0c.79.84,1.63,1.64,2.43,2.46,1.32,1.31,2.62,2.62,3.94,3.92-.86,3.34-1.77,6.67-2.64,10q-5,1.34-10,2.65l-6.38-6.38,0,0c.41-.33.75-.73,1.13-1.09q5.76-5.77,11.53-11.53Z"/><path class="cls-1" d="M135.73,19.59c.2-.19.37-.39.58-.56l12.61,12.62,0,0c-1.91,1.92-3.83,3.83-5.75,5.75-.22.21-.42.44-.65.64-3.32-.9-6.65-1.77-10-2.66q-1.32-5-2.65-10c1.93-2,3.89-3.89,5.82-5.83Z"/></svg>