<svg id="Layer_2" data-name="Layer 2" xmlns="http://www.w3.org/2000/svg" viewBox="0 0 250 86.36"><defs><style>.cls-1{fill:#fff;fill-rule:evenodd;}</style></defs><title>wayfair-white</title><path class="cls-1" d="M173,6.12c1.2-.31,2.39-.65,3.6-.94,1.1,1.13,2.23,2.24,3.35,3.36s2,2,3,3l0,0q-6.33,6.31-12.64,12.63c-2.14-2.12-4.25-4.26-6.38-6.37.87-3.34,1.76-6.67,2.64-10L173,6.12Z"/><path class="cls-1" d="M189.32,5.18c3.34.86,6.67,1.76,10,2.64.79,3,1.56,5.92,2.35,8.88.09.37.21.74.29,1.12l-6.37,6.37,0,0c-1.79-1.82-3.61-3.61-5.41-5.42q-3.1-3.12-6.23-6.23c-.33-.33-.65-.68-1-1l0,0,6.36-6.37Z"/><path class="cls-1" d="M170.3,24.2q6.33-6.3,12.64-12.63c.35.31.67.66,1,1q3.12,3.11,6.23,6.23c1.8,1.81,3.62,3.6,5.41,5.42Q189.82,30,184.05,35.74c-.38.36-.72.76-1.12,1.09q-6.31-6.32-12.62-12.62Z"/><path class="cls-1" d="M136.83,35.44a8.7,8.7,0,0,1,4-1.31,18.27,18.27,0,0,1,4.18.14,14.43,14.43,0,0,1,4.53,1.43v5.45c-1.39,0-2.77,0-4.16,0,0-.85,0-1.7,0-2.54a4.74,4.74,0,0,0-1.43-.86,3.22,3.22,0,0,0-2-.07,1.93,1.93,0,0,0-1.21,1,5.56,5.56,0,0,0-.48,1.74,17.69,17.69,0,0,0-.12,2.41v3.33h6.63c0,1.18,0,2.36,0,3.54-2.21,0-4.41,0-6.62,0v19.1h4.12c0,1.18,0,2.36,0,3.54-4.91,0-9.83,0-14.75,0V68.77H133q0-9.54,0-19.09c-2.1,0-4.19,0-6.29,0L113,80.15c-.23.52-.46,1-.7,1.55h-6c-.47,0-.93,0-1.4,0,1.58-1.92,3.13-3.87,4.69-5.8L112.72,72l-10-22.32c-.68,0-1.37,0-2,0,0-1.18,0-2.36,0-3.53h12.65c0,1.18,0,2.36,0,3.54-1,0-1.94,0-2.91,0,1.13,2.51,2.24,5,3.36,7.54,1,2.21,2,4.4,2.93,6.61,1.14-2.52,2.26-5,3.39-7.56,1-2.2,2-4.39,2.94-6.6h-2.91c0-1.18,0-2.36,0-3.54H133a25.23,25.23,0,0,1,.24-4.35,11.06,11.06,0,0,1,1.47-4.18,7,7,0,0,1,2.11-2.17Z"/><path class="cls-1" d="M77.88,47.72a23.43,23.43,0,0,1,9-2.18,20.66,20.66,0,0,1,4.44.32A9.65,9.65,0,0,1,95,47.31a6.19,6.19,0,0,1,2.25,2.78,7.84,7.84,0,0,1,.56,2.29c.07.71,0,1.43,0,2.14v9.3A18.16,18.16,0,0,0,98,66.58a3.87,3.87,0,0,0,.55,1.51,1.56,1.56,0,0,0,1,.67,3.1,3.1,0,0,0,1.21-.1c.12,1.22.21,2.43.32,3.65a11.12,11.12,0,0,1-4.4.55,5.77,5.77,0,0,1-3.54-1.61,7.53,7.53,0,0,1-1.41-2A15.52,15.52,0,0,1,89,71.46a10,10,0,0,1-4.28,1.41,9.1,9.1,0,0,1-4.55-.76,7.35,7.35,0,0,1-4-4.87,9.56,9.56,0,0,1,.09-4.48,6.74,6.74,0,0,1,2.13-3.41,9.66,9.66,0,0,1,3.46-1.78,31.37,31.37,0,0,1,9-1c0-1.08,0-2.16,0-3.24a4.61,4.61,0,0,0-1.07-3.17,4.39,4.39,0,0,0-3.24-1.13,7.08,7.08,0,0,0-4.43,1.56c-.11.76-.21,1.52-.32,2.27H77.89c0-1.74,0-3.47,0-5.2ZM87.5,60a7,7,0,0,0-3.23,1.23,3.74,3.74,0,0,0-1.38,2.35,4.69,4.69,0,0,0,.29,2.77,3.69,3.69,0,0,0,2.22,2,4.49,4.49,0,0,0,2.89-.23,8.14,8.14,0,0,0,2.49-1.59c0-2.22,0-4.45,0-6.67a18.2,18.2,0,0,0-3.3.14Z"/><path class="cls-1" d="M151.73,47.74A22.82,22.82,0,0,1,160,45.58a19.65,19.65,0,0,1,6,.46,7.85,7.85,0,0,1,4.26,2.55,7.6,7.6,0,0,1,1.47,4.66V65.1a7.57,7.57,0,0,0,.36,2.41,2,2,0,0,0,1,1.15,2.79,2.79,0,0,0,1.57,0c.09,1.22.21,2.43.3,3.64a11.42,11.42,0,0,1-4.34.56,6,6,0,0,1-2.91-1.05,7.25,7.25,0,0,1-2.11-2.52,14,14,0,0,1-4.14,2.84,9.68,9.68,0,0,1-5.65.58A7.52,7.52,0,0,1,150,67.39a9.17,9.17,0,0,1-.17-3.5,7.3,7.3,0,0,1,1.32-3.42,8.34,8.34,0,0,1,4.43-2.88,30.79,30.79,0,0,1,9.08-1c0-1.15,0-2.3,0-3.45a3.83,3.83,0,0,0-4.32-4.1,7.11,7.11,0,0,0-4.42,1.56c-.11.76-.2,1.52-.31,2.27h-3.85c0-1.72,0-3.45,0-5.17ZM161.27,60a7.16,7.16,0,0,0-2.8,1,3.7,3.7,0,0,0-1.58,2,5,5,0,0,0-.11,2.58,3.76,3.76,0,0,0,2.35,2.72,4.19,4.19,0,0,0,2.55,0,8.11,8.11,0,0,0,2.81-1.6c.07-.07.18-.12.15-.23,0-2.2,0-4.39,0-6.59a19.09,19.09,0,0,0-3.38.15Z"/><path class="cls-1" d="M211.21,45.6a5.63,5.63,0,0,1,2.79.24v7.64h-4.13c0-.81,0-1.62,0-2.43a6.54,6.54,0,0,0-3.33,1,9.63,9.63,0,0,0-2.49,2.4c0,4.77,0,9.54,0,14.32h3.51c0,1.18,0,2.36,0,3.54-1.66,0-3.32,0-5,0H193.4c0-1.18,0-2.36,0-3.55h3.53q0-9.54,0-19.09c-1.17,0-2.35,0-3.52,0,0-1.17,0-2.35,0-3.53H204c0,1.61,0,3.23,0,4.84a13.23,13.23,0,0,1,2.49-3.22,8.25,8.25,0,0,1,4.69-2.16Z"/><path class="cls-1" d="M34,46.14H45.87c0,1.17,0,2.35,0,3.52-1.07,0-2.15,0-3.23,0q2.2,6.62,4.4,13.23a1.39,1.39,0,0,0,.12.28Q50.25,55.1,53.37,47c.12-.3.22-.61.36-.91h3.62q3.09,8.52,6.18,17c1.53-4.49,3-9,4.52-13.49-1.08,0-2.16,0-3.25,0,0-1.18,0-2.36,0-3.53h9c0,1.18,0,2.36,0,3.54H71.74Q67.91,61.13,64.08,72.6H60.85c-.1,0-.22,0-.31,0L54.6,56.19c-.16-.44-.3-.89-.48-1.32Q50.7,63.74,47.26,72.6H43.58q-3.75-11.47-7.51-22.93c-.68,0-1.37,0-2.06,0,0-1.17,0-2.35,0-3.53Z"/><path class="cls-1" d="M177.28,46.14h10.61c0,7.54,0,15.08,0,22.63h3.52c0,1.18,0,2.37,0,3.55H177.28V68.77h3.51c0-6.36,0-12.72,0-19.09-1.18,0-2.35,0-3.52,0V46.14Z"/><path class="cls-1" d="M195.58,24.21l0,0c.79.84,1.63,1.64,2.44,2.46,1.31,1.31,2.61,2.62,3.93,3.92-.85,3.34-1.77,6.67-2.64,10q-5,1.34-10,2.65L183,36.85l0,0c.4-.33.74-.73,1.12-1.09q5.76-5.78,11.53-11.53Z"/><path class="cls-1" d="M169.74,24.77a6,6,0,0,1,.57-.56q6.3,6.32,12.62,12.62l0,0-5.76,5.75c-.21.21-.42.44-.65.64-3.32-.9-6.65-1.77-10-2.66-.88-3.32-1.75-6.65-2.65-10,1.93-2,3.89-3.89,5.83-5.83Z"/></svg>