<svg id="Layer_2" data-name="Layer 2" xmlns="http://www.w3.org/2000/svg" viewBox="0 0 752 115"><defs><style>.cls-1{fill:#29abe2;}</style></defs><title>Artboard 1</title><path class="cls-1" d="M-4.5,65.5l8,3,6,2h16l3,5h8a44.46,44.46,0,0,0,20,3h16s73-14,76-9c0,0,43-10,47-13a79.22,79.22,0,0,1,10-6l12-5s17-9,23-11,9-4,23-10,32-10,32-10,51-18,56-12c0,0,8,5,11,4s7,3,7,3,17,7,30,15,40,20,56,10c0,0,22-9,27-4,0,0,8,2,12,1s8,4,8,4,26,8,36,10c0,0,24,6,36,12s37,3,37,3l12,2s19,5,27,4a16.33,16.33,0,0,0,11,4c7,0,18,2,24,1s24-1,30,3,24,10,31,15l4,5v21H-4.5Z"/></svg>